<svg preserveAspectRatio="none" width="100%" height="100%" overflow="visible" style="display: block;" viewBox="0 0 56 56" fill="none" xmlns="http://www.w3.org/2000/svg">
<g id="Overlay">
<rect width="56" height="56" rx="6" fill="var(--fill-0, #CADB3F)" fill-opacity="0.15"/>
<path id="Vector" fill-rule="evenodd" clip-rule="evenodd" d="M33.8068 25.459C34.5921 25.8504 35.332 26.3187 36.0166 26.8539V16.0887C36.0166 16.0399 35.9766 16 35.9275 16H33.896C33.8469 16 33.8069 16.0399 33.8069 16.0887V25.459H33.8068ZM29.199 24.1524C29.9563 24.2215 30.6947 24.3552 31.4088 24.548V18.7535C31.4088 18.7047 31.3687 18.6648 31.3197 18.6648H29.2881C29.2391 18.6648 29.199 18.7047 29.199 18.7535V24.1524ZM24.5912 24.5481C25.3052 24.3552 26.0437 24.2214 26.801 24.1524V17.2508C26.801 17.2019 26.7609 17.1621 26.7119 17.1621H24.6803C24.6313 17.1621 24.5912 17.2019 24.5912 17.2508V24.5481H24.5912ZM19.9834 26.8539C20.668 26.3187 21.4079 25.8503 22.1932 25.459V19.4831C22.1932 19.4342 22.1532 19.3944 22.1041 19.3944H20.0725C20.0234 19.3944 19.9834 19.4342 19.9834 19.4831V26.8539ZM24.3413 40C24.1409 40 23.9784 39.8383 23.9784 39.6389C23.9784 39.4395 24.1409 39.2779 24.3413 39.2779H31.6588C31.8592 39.2779 32.0216 39.4395 32.0216 39.6389C32.0216 39.8383 31.8592 40 31.6588 40H24.3413ZM35.5489 30.3958C33.6467 28.2525 30.9214 27.0048 28 27.0048C23.39 27.0048 19.4025 30.1162 18.2563 34.4921H16C17.1868 28.8955 22.1714 24.8201 28 24.8201C33.8286 24.8201 38.8133 28.8955 40 34.492H37.7438C37.4725 33.4578 37.0324 32.4692 36.451 31.5775L37.6652 30.4714C37.9857 30.2016 37.7037 29.7287 37.3347 29.843L35.5489 30.3958ZM29.3619 34.0081C28.6098 33.2597 27.3902 33.2596 26.6382 34.0081C25.8861 34.7567 25.8861 35.9705 26.6382 36.719C27.3902 37.4675 28.6099 37.4675 29.3619 36.719C30.1139 35.9705 30.1139 34.7567 29.3619 34.0081ZM29.7728 33.4013C30.2848 33.8597 30.6135 34.5105 30.6484 35.2352L32.1746 34.4992L36.0049 31.0096L31.0243 32.5513L29.7728 33.4013ZM27.6372 28.883V29.8596C27.6372 30.059 27.7996 30.2206 28 30.2206C28.2004 30.2206 28.3628 30.059 28.3628 29.8596V28.883C28.3628 28.6836 28.2004 28.5219 28 28.5219C27.7996 28.5219 27.6372 28.6836 27.6372 28.883ZM23.3649 30.4951L24.0588 31.1857C24.2005 31.3267 24.4301 31.3267 24.5718 31.1857C24.7134 31.0447 24.7134 30.8161 24.5718 30.6751L23.8779 29.9846C23.7362 29.8436 23.5066 29.8436 23.3649 29.9846C23.2233 30.1255 23.2233 30.3541 23.3649 30.4951ZM21.0152 33.4144L21.865 33.9027C22.038 34.0024 22.2594 33.9437 22.3596 33.7716C22.4598 33.5994 22.4008 33.379 22.2278 33.2793L21.378 32.791C21.205 32.6913 20.9836 32.75 20.8834 32.9221C20.7832 33.0943 20.8422 33.3147 21.0152 33.4144Z" fill="var(--fill-0, #004C43)"/>
</g>
</svg>
