<svg preserveAspectRatio="none" width="100%" height="100%" overflow="visible" style="display: block;" viewBox="0 0 24 24" fill="none" xmlns="http://www.w3.org/2000/svg">
<g id="Layer 26">
<path id="Vector" d="M13.2857 12C13.2857 12.2543 13.2103 12.5029 13.069 12.7143C12.9278 12.9257 12.727 13.0905 12.492 13.1878C12.2571 13.2852 11.9986 13.3106 11.7492 13.261C11.4998 13.2114 11.2707 13.0889 11.0909 12.9091C10.9111 12.7293 10.7886 12.5002 10.739 12.2508C10.6894 12.0014 10.7148 11.7429 10.8122 11.508C10.9095 11.273 11.0743 11.0722 11.2857 10.931C11.4971 10.7897 11.7457 10.7143 12 10.7143C12.341 10.7143 12.668 10.8497 12.9091 11.0909C13.1503 11.332 13.2857 11.659 13.2857 12ZM24 12C24 12.2273 23.9097 12.4453 23.7489 12.6061C23.5882 12.7668 23.3702 12.8571 23.1429 12.8571H21.4286C21.2355 15.0656 20.2704 17.1353 18.7028 18.7028C17.1353 20.2704 15.0656 21.2355 12.8571 21.4286V23.1429C12.8571 23.3702 12.7668 23.5882 12.6061 23.7489C12.4453 23.9097 12.2273 24 12 24C11.7727 24 11.5547 23.9097 11.3939 23.7489C11.2332 23.5882 11.1429 23.3702 11.1429 23.1429V21.4286C8.94211 21.2259 6.88248 20.2566 5.32366 18.69C3.76484 17.1233 2.80589 15.0589 2.61429 12.8571H0.857143C0.629814 12.8571 0.411797 12.7668 0.251051 12.6061C0.0903058 12.4453 0 12.2273 0 12C0 11.7727 0.0903058 11.5547 0.251051 11.3939C0.411797 11.2332 0.629814 11.1429 0.857143 11.1429H2.61429C2.8154 8.94879 3.77854 6.89443 5.33649 5.33649C6.89443 3.77854 8.94879 2.8154 11.1429 2.61429V0.857143C11.1429 0.629814 11.2332 0.411797 11.3939 0.251051C11.5547 0.0903058 11.7727 0 12 0C12.2273 0 12.4453 0.0903058 12.6061 0.251051C12.7668 0.411797 12.8571 0.629814 12.8571 0.857143V2.61429C15.0589 2.80589 17.1233 3.76484 18.69 5.32366C20.2566 6.88248 21.2259 8.94211 21.4286 11.1429H23.1429C23.3702 11.1429 23.5882 11.2332 23.7489 11.3939C23.9097 11.5547 24 11.7727 24 12ZM12.8571 4.33714V6.90857C13.912 7.08877 14.8843 7.59354 15.6387 8.35253C16.3931 9.11152 16.8919 10.0869 17.0657 11.1429H19.6371C19.4432 9.4089 18.6672 7.7919 17.4358 6.55584C16.2044 5.31977 14.5904 4.53764 12.8571 4.33714ZM15.4286 12C15.4286 11.3219 15.2275 10.659 14.8508 10.0952C14.474 9.53136 13.9385 9.09191 13.3121 8.83241C12.6856 8.57291 11.9962 8.50502 11.3311 8.63731C10.666 8.7696 10.0551 9.09614 9.57563 9.57563C9.09614 10.0551 8.7696 10.666 8.63731 11.3311C8.50502 11.9962 8.57291 12.6856 8.83241 13.3121C9.09191 13.9385 9.53136 14.474 10.0952 14.8508C10.659 15.2275 11.3219 15.4286 12 15.4286C12.9093 15.4286 13.7814 15.0673 14.4244 14.4244C15.0673 13.7814 15.4286 12.9093 15.4286 12ZM4.33714 11.1429H6.90857C7.08877 10.088 7.59354 9.11566 8.35253 8.36128C9.11152 7.60689 10.0869 7.10806 11.1429 6.93429V4.36286C9.4089 4.55679 7.7919 5.3328 6.55584 6.5642C5.31977 7.7956 4.53764 9.40965 4.33714 11.1429ZM11.1429 19.6629V17.0914C10.088 16.9112 9.11566 16.4065 8.36128 15.6475C7.60689 14.8885 7.10806 13.9131 6.93429 12.8571H4.36286C4.55679 14.5911 5.3328 16.2081 6.5642 17.4442C7.7956 18.6802 9.40965 19.4624 11.1429 19.6629ZM19.6629 12.8571H17.0914C16.9112 13.912 16.4065 14.8843 15.6475 15.6387C14.8885 16.3931 13.9131 16.8919 12.8571 17.0657V19.6371C14.5911 19.4432 16.2081 18.6672 17.4442 17.4358C18.6802 16.2044 19.4624 14.5904 19.6629 12.8571Z" fill="var(--fill-0, #004C43)"/>
</g>
</svg>
