<svg preserveAspectRatio="none" width="100%" height="100%" overflow="visible" style="display: block;" viewBox="0 0 24 24" fill="none" xmlns="http://www.w3.org/2000/svg">
<g id="fi_2285559" clip-path="url(#clip0_0_9)">
<path id="Vector" d="M23.2966 22.5937H22.5466V8.71891C22.5466 8.3306 22.2318 8.0158 21.8435 8.0158H19.031C18.6427 8.0158 18.3279 8.3306 18.3279 8.71891V22.5937H16.9216V13.4063C16.9216 13.018 16.6068 12.7032 16.2185 12.7032H13.4061C13.0178 12.7032 12.703 13.018 12.703 13.4063V22.5937H11.2967V15.9844C11.2967 15.5961 10.9819 15.2813 10.5936 15.2813H7.78114C7.39284 15.2813 7.07803 15.5961 7.07803 15.9844V22.5937H5.6718V17.6719C5.6718 17.2836 5.35699 16.9688 4.96868 16.9688H2.15622C1.76791 16.9688 1.4531 17.2836 1.4531 17.6719V22.5937H0.703115C0.314808 22.5937 -2.66697e-07 22.9085 -2.66697e-07 23.2968C-2.66697e-07 23.6851 0.314808 24 0.703115 24H23.2966C23.6849 24 23.9997 23.6851 23.9997 23.2968C23.9997 22.9085 23.6849 22.5937 23.2966 22.5937Z" fill="var(--fill-0, #004C43)"/>
<path id="Vector_2" d="M0.703115 15.1081C5.0914 15.1081 9.85018 13.5321 14.1029 10.6703C17.4336 8.42904 20.21 5.56581 21.9346 2.63396L22.6174 5.18238C22.7016 5.49653 23.1081 5.76794 23.4786 5.67953C23.8563 5.58944 24.0762 5.19349 23.9757 4.8184L22.8243 0.52143C22.7238 0.146389 22.3384 -0.0762646 21.9632 0.0242809L17.6662 1.17566C17.2912 1.27615 17.0686 1.6617 17.1691 2.03678C17.2696 2.41187 17.655 2.63453 18.0302 2.53393L20.7984 1.79219C19.1894 4.58806 16.5303 7.34184 13.3178 9.50364C9.29467 12.2109 4.8147 13.7018 0.703115 13.7018C0.314808 13.7018 0 14.0167 0 14.405C0 14.7933 0.314808 15.1081 0.703115 15.1081Z" fill="var(--fill-0, #004C43)"/>
</g>
<defs>
<clipPath id="clip0_0_9">
<rect width="24" height="24" fill="white"/>
</clipPath>
</defs>
</svg>
